<svg xmlns="http://www.w3.org/2000/svg" viewBox="0 0 100 100"><path d="M270 33.119c-23.968 3.859-39.892 25.125-45.961 61.381-7.697 45.973-21.779 63.345-123.465 152.315-3.341 2.922-5.849 5.569-5.574 5.882.275.312 4.55.48 9.5.374l9-.193 8.5-5.309c4.675-2.92 21.55-13.828 37.5-24.24 15.95-10.412 32.492-21.158 36.76-23.88l20-12.752c6.732-4.291 12.727-8.023 13.323-8.292 1.042-.472 7.915 3.662 35.917 21.604 21.325 13.663 31.734 20.09 32.041 19.782 1.478-1.488 3.778-20.36 4.196-34.436.574-19.317-.362-29.554-4.763-52.078-4.356-22.299-3.871-29.065 2.601-36.228 6.813-7.541 19.424-10.336 34.816-7.717l4.892.833-.662-3.309c-1.762-8.809-8.021-16.807-17.215-21.996-3.861-2.179-5.585-3.819-6.002-5.709-3.027-13.743-13.619-23.157-29.424-26.155-5.987-1.135-8.273-1.118-15.98.123m4.888 25.326c-6.217 3.508-6.211 13.09.01 17.271 4.736 3.184 7.684 2.902 11.702-1.116 8.655-8.655-1.116-22.133-11.712-16.155m-64.916 146.319c-10.71 7.021-30.624 19.932-44.254 28.693-16.733 10.753-24.34 16.175-23.419 16.69 2.045 1.145 177.123.549 177.584-.604.21-.527-5.415-4.635-12.5-9.13C243.847 200.106 230.855 192 229.788 192c-.189 0-9.106 5.744-19.816 12.764m16.528 4.969c-8.569 2.145-13.135 13.433-8.505 21.026 6.114 10.029 20.317 9.37 25.101-1.164 5.161-11.364-4.475-22.897-16.596-19.862m-97.05 54.674c-13.447 5.857-11.053 26.361 3.303 28.287l4.247.569v78.828l2.455 2.454c3.411 3.411 9.679 3.411 13.09 0 2.44-2.439 2.455-2.572 2.466-22.25.015-24.899.877-50.695 1.999-59.795 2.546-20.645-11.586-35.051-27.56-28.093m42.316 1.508-3.266 2.916-.327 12.984c-.261 10.348-.008 13.604 1.25 16.035 1.35 2.612 1.577 8.21 1.577 38.926v35.875l2.25 2.06c3.314 3.033 6.166 3.56 10.183 1.881 5.414-2.262 5.564-3.38 5.602-41.907.029-28.618.303-35.652 1.465-37.685 2.207-3.861 2.031-23.435-.252-27.986-3.363-6.706-12.69-8.27-18.482-3.099m36.254-1.631c-4.475 2.264-5.097 4.992-4.497 19.716.303 7.425.769 30.419 1.037 51.097l.486 37.598 2.359 2.216c3.817 3.586 11.48 2.906 13.846-1.229.935-1.634 1.249-11.262 1.249-38.344 0-36.124.002-36.165 2.25-38.565 2.782-2.969 3.337-21.235.829-27.239-2.405-5.755-11.303-8.415-17.559-5.25m33.361.626c-1.716 1.046-3.628 3.361-4.25 5.145-1.685 4.832-1.443 22.263.369 26.599 1.24 2.967 1.5 9.875 1.5 39.794v36.203l2.25 2.085c3.725 3.452 9.739 3.366 13.295-.191l2.455-2.454V336.07c0-34.239.099-36.184 1.996-39.296 2.342-3.841 2.784-20.735.698-26.669-2.243-6.376-11.889-9.113-18.313-5.195m34.832-.403c-4.795 2.083-6.214 6.362-6.207 18.711.004 7.165.459 11.15 1.5 13.146 1.246 2.388 1.494 8.924 1.494 39.296v36.431l2.455 2.454c2.763 2.764 8.815 3.326 11.756 1.092 3.447-2.619 3.789-6.344 3.789-41.237 0-31.145.169-34.728 1.75-37.14 1.893-2.888 2.563-21.85.973-27.541-1.593-5.705-10.367-8.316-17.51-5.212m40.287-.119c-9.04 3.945-13.346 13.63-11.61 26.112.652 4.688 1.112 23.235 1.111 44.795L306 372.091l2.455 2.454c3.136 3.137 10.137 3.415 13.684.544l2.361-1.911.5-39.839.5-39.839 2.5-.288c12.182-1.401 18.156-14.163 11.201-23.93-4.121-5.787-15.189-8.173-22.701-4.894m-254.034 18.81a6256.078 6256.078 0 0 0-24.414 23L25.603 318l33.949-.006c34.535-.005 36.723-.198 47.827-4.21l5.878-2.124-.577-6.181c-.428-4.589-1.427-7.547-3.878-11.49-2.918-4.693-3.343-6.278-3.655-13.649l-.352-8.34H74.433l-11.967 11.198" fill-rule="evenodd"/></svg>